# xmcd
#
# Track frame offsets:
# 150
# 45346
# 88005
# 149331
#
# Disc length: 3242 seconds
#
# Revision: 0
# Processed by: cddbd v1.5.2PL0 Copyright (c) Steve Scherf et al.
# Submitted via: Audion 3.0.2 (http://www.panic.com/audion/)
#
DISCID=2c0ca804
DTITLE=Dexter Gordon Utrecht Jan 63 - Dexter Gordon Utrecht Jan 63
DYEAR=1900
DGENRE=
TTITLE0=1
TTITLE1=2
TTITLE2=3
TTITLE3=4
EXTD=
EXTT0=
EXTT1=
EXTT2=
EXTT3=
PLAYORDER=
